<svg width="20" height="20" viewBox="0 0 20 20" fill="none" xmlns="http://www.w3.org/2000/svg">
<g id="vuesax/bold/arrow-3">
<g id="arrow-3">
<g id="Vector">
<mask id="path-1-inside-1_1447_45414" fill="white">
<path d="M9.14999 5.15833L6.05833 2.06667C5.99999 2.00833 5.92499 1.95833 5.84166 1.925C5.83333 1.925 5.82499 1.925 5.81666 1.91667C5.74999 1.89167 5.68333 1.875 5.60833 1.875C5.44166 1.875 5.28333 1.94167 5.16666 2.05833L2.05833 5.15833C1.81666 5.4 1.81666 5.8 2.05833 6.04167C2.29999 6.28333 2.69999 6.28333 2.94166 6.04167L4.98333 4V17.5C4.98333 17.8417 5.26666 18.125 5.60833 18.125C5.94999 18.125 6.23333 17.8417 6.23333 17.5V4.00833L8.26666 6.04167C8.39166 6.16667 8.54999 6.225 8.70833 6.225C8.86666 6.225 9.02499 6.16667 9.14999 6.04167C9.39166 5.8 9.39166 5.40833 9.14999 5.15833Z"/>
</mask>
<path d="M9.14999 5.15833L6.05833 2.06667C5.99999 2.00833 5.92499 1.95833 5.84166 1.925C5.83333 1.925 5.82499 1.925 5.81666 1.91667C5.74999 1.89167 5.68333 1.875 5.60833 1.875C5.44166 1.875 5.28333 1.94167 5.16666 2.05833L2.05833 5.15833C1.81666 5.4 1.81666 5.8 2.05833 6.04167C2.29999 6.28333 2.69999 6.28333 2.94166 6.04167L4.98333 4V17.5C4.98333 17.8417 5.26666 18.125 5.60833 18.125C5.94999 18.125 6.23333 17.8417 6.23333 17.5V4.00833L8.26666 6.04167C8.39166 6.16667 8.54999 6.225 8.70833 6.225C8.86666 6.225 9.02499 6.16667 9.14999 6.04167C9.39166 5.8 9.39166 5.40833 9.14999 5.15833Z" fill="#292D32"/>
<path d="M9.14999 5.15833L10.2285 4.1158L10.2196 4.10666L10.2107 4.09767L9.14999 5.15833ZM5.84166 1.925L6.39875 0.532285L6.13053 0.425H5.84166V1.925ZM5.81666 1.91667L6.87732 0.856006L6.64757 0.626258L6.34334 0.512173L5.81666 1.91667ZM5.16666 2.05833L6.22589 3.12042L6.22732 3.11899L5.16666 2.05833ZM2.05833 5.15833L0.999089 4.09625L0.997665 4.09767L2.05833 5.15833ZM2.94166 6.04167L1.881 4.98101H1.881L2.94166 6.04167ZM4.98333 4H6.48333V0.37868L3.92267 2.93934L4.98333 4ZM6.23333 4.00833L7.29399 2.94767L4.73333 0.387013V4.00833H6.23333ZM10.2107 4.09767L7.11899 1.00601L4.99767 3.12733L8.08933 6.21899L10.2107 4.09767ZM7.11899 1.00601C6.91475 0.801772 6.6677 0.639867 6.39875 0.532285L5.28457 3.31772C5.18229 3.2768 5.08523 3.21489 4.99767 3.12733L7.11899 1.00601ZM5.84166 0.425C5.80964 0.425 5.98943 0.417861 6.19296 0.468743C6.44687 0.532222 6.68516 0.663844 6.87732 0.856006L4.756 2.97733C5.23069 3.45202 5.81105 3.425 5.84166 3.425V0.425ZM6.34334 0.512173C6.16927 0.446895 5.9185 0.375 5.60833 0.375V3.375C5.44815 3.375 5.33072 3.33644 5.28997 3.32116L6.34334 0.512173ZM5.60833 0.375C5.03932 0.375 4.50076 0.602912 4.106 0.997673L6.22732 3.11899C6.06589 3.28042 5.844 3.375 5.60833 3.375V0.375ZM4.10742 0.99625L0.99909 4.09625L3.11756 6.22042L6.22589 3.12042L4.10742 0.99625ZM0.997665 4.09767C0.170212 4.92513 0.170212 6.27487 0.997665 7.10233L3.11899 4.98101C3.46311 5.32513 3.46311 5.87487 3.11899 6.21899L0.997665 4.09767ZM0.997665 7.10233C1.82512 7.92978 3.17487 7.92978 4.00232 7.10233L1.881 4.98101C2.22512 4.63689 2.77487 4.63689 3.11899 4.98101L0.997665 7.10233ZM4.00232 7.10233L6.04399 5.06066L3.92267 2.93934L1.881 4.98101L4.00232 7.10233ZM3.48333 4V17.5H6.48333V4H3.48333ZM3.48333 17.5C3.48333 18.6701 4.43823 19.625 5.60833 19.625V16.625C6.09509 16.625 6.48333 17.0132 6.48333 17.5H3.48333ZM5.60833 19.625C6.77842 19.625 7.73333 18.6701 7.73333 17.5H4.73333C4.73333 17.0132 5.12157 16.625 5.60833 16.625V19.625ZM7.73333 17.5V4.00833H4.73333V17.5H7.73333ZM5.17267 5.06899L7.206 7.10233L9.32732 4.98101L7.29399 2.94767L5.17267 5.06899ZM7.206 7.10233C7.62713 7.52346 8.17364 7.725 8.70833 7.725V4.725C8.92635 4.725 9.15619 4.80988 9.32732 4.98101L7.206 7.10233ZM8.70833 7.725C9.24302 7.725 9.78952 7.52346 10.2107 7.10233L8.08933 4.98101C8.26046 4.80988 8.4903 4.725 8.70833 4.725V7.725ZM10.2107 7.10233C11.0478 6.26515 11.0224 4.93714 10.2285 4.1158L8.07151 6.20087C7.76088 5.87952 7.73549 5.33485 8.08933 4.98101L10.2107 7.10233Z" fill="#242628" mask="url(#path-1-inside-1_1447_45414)"/>
</g>
<path id="Vector_2" d="M17.9417 13.9583C17.7 13.7167 17.3 13.7167 17.0583 13.9583L15.0167 16V2.5C15.0167 2.15833 14.7333 1.875 14.3917 1.875C14.05 1.875 13.7667 2.15833 13.7667 2.5V15.9917L11.7333 13.9583C11.4917 13.7167 11.0917 13.7167 10.85 13.9583C10.6083 14.2 10.6083 14.6 10.85 14.8417L13.9417 17.9333C14 17.9917 14.075 18.0417 14.1583 18.075C14.1667 18.075 14.175 18.075 14.1833 18.0833C14.25 18.1083 14.325 18.125 14.4 18.125C14.5667 18.125 14.725 18.0583 14.8417 17.9417L17.9417 14.8417C18.1833 14.5917 18.1833 14.2 17.9417 13.9583Z" fill="#292D32"/>
</g>
</g>
</svg>
