<svg width="32" height="32" viewBox="0 0 32 32" fill="none" xmlns="http://www.w3.org/2000/svg">
<g id="ph:arrow-right-bold">
<path id="Vector" d="M28.0625 17.0625L19.0625 26.0625C18.7794 26.3419 18.3977 26.4986 18 26.4986C17.6023 26.4986 17.2206 26.3419 16.9375 26.0625C16.7977 25.9232 16.6867 25.7576 16.611 25.5752C16.5353 25.3929 16.4963 25.1974 16.4963 25C16.4963 24.8026 16.5353 24.6071 16.611 24.4248C16.6867 24.2425 16.7977 24.0769 16.9375 23.9375L23.375 17.5H5C4.60218 17.5 4.22064 17.342 3.93934 17.0607C3.65804 16.7794 3.5 16.3978 3.5 16C3.5 15.6022 3.65804 15.2207 3.93934 14.9393C4.22064 14.658 4.60218 14.5 5 14.5H23.375L16.9375 8.06251C16.6557 7.78072 16.4974 7.39852 16.4974 7.00001C16.4974 6.80268 16.5363 6.60729 16.6118 6.42499C16.6873 6.24268 16.798 6.07704 16.9375 5.93751C17.077 5.79798 17.2427 5.6873 17.425 5.61178C17.6073 5.53627 17.8027 5.49741 18 5.49741C18.3985 5.49741 18.7807 5.65572 19.0625 5.93751L28.0625 14.9375C28.2023 15.0769 28.3133 15.2425 28.389 15.4248C28.4647 15.6071 28.5037 15.8026 28.5037 16C28.5037 16.1974 28.4647 16.3929 28.389 16.5752C28.3133 16.7576 28.2023 16.9232 28.0625 17.0625Z" fill="#17191C"/>
</g>
</svg>
