<svg width="29" height="30" viewBox="0 0 29 30" fill="none" xmlns="http://www.w3.org/2000/svg">
<path d="M25.828 15C25.828 15.373 25.6848 15.7306 25.4299 15.9944C25.175 16.2581 24.8292 16.4062 24.4687 16.4062H7.81633L13.6503 22.4414C13.777 22.5721 13.8776 22.7273 13.9462 22.8982C14.0148 23.0692 14.0501 23.2524 14.0501 23.4375C14.0501 23.6226 14.0148 23.8058 13.9462 23.9768C13.8776 24.1477 13.777 24.3029 13.6503 24.4336C13.3938 24.6955 13.0479 24.8424 12.6874 24.8424C12.327 24.8424 11.9811 24.6955 11.7245 24.4336L3.56828 15.9961C3.44155 15.8654 3.341 15.7102 3.27239 15.5393C3.20377 15.3683 3.16846 15.1851 3.16846 15C3.16846 14.8149 3.20377 14.6317 3.27239 14.4607C3.341 14.2898 3.44155 14.1346 3.56828 14.0039L11.7245 5.5664C11.9799 5.30222 12.3263 5.15381 12.6874 5.15381C12.8662 5.15381 13.0433 5.19025 13.2085 5.26104C13.3737 5.33183 13.5239 5.4356 13.6503 5.5664C13.7768 5.69721 13.8771 5.85251 13.9455 6.02342C14.0139 6.19433 14.0492 6.37751 14.0492 6.5625C14.0492 6.74749 14.0139 6.93067 13.9455 7.10158C13.8771 7.27249 13.7768 7.42778 13.6503 7.55859L7.81633 13.5937H24.4687C24.8292 13.5937 25.175 13.7419 25.4299 14.0056C25.6848 14.2694 25.828 14.627 25.828 15Z" fill="#17191C"/>
</svg>
