<svg width="35" height="35" viewBox="0 0 35 35" fill="none" xmlns="http://www.w3.org/2000/svg">
<path fill-rule="evenodd" clip-rule="evenodd" d="M4.375 5.83329C4.375 5.05975 4.68229 4.31788 5.22927 3.7709C5.77625 3.22392 6.51812 2.91663 7.29167 2.91663H10.2083C10.7392 2.91663 11.2379 3.05809 11.6667 3.30746C12.1098 3.0508 12.6129 2.91596 13.125 2.91663H16.0417C17.1019 2.91663 18.0308 3.48246 18.5412 4.32975C18.8475 4.08475 19.2062 3.89809 19.6087 3.79017L22.4262 3.03621C22.7962 2.93696 23.1822 2.91157 23.562 2.96149C23.9418 3.01141 24.3081 3.13567 24.6399 3.32715C24.9716 3.51864 25.2625 3.77362 25.4957 4.07751C25.7289 4.38141 25.9 4.72827 25.9992 5.09829L32.0367 27.6368C32.1359 28.0068 32.1613 28.3928 32.1114 28.7726C32.0615 29.1524 31.9372 29.5187 31.7457 29.8504C31.5542 30.1822 31.2993 30.473 30.9954 30.7063C30.6915 30.9395 30.3446 31.1106 29.9746 31.2098L27.1571 31.9637C26.7871 32.063 26.4012 32.0884 26.0213 32.0384C25.6415 31.9885 25.2753 31.8643 24.9435 31.6728C24.6117 31.4813 24.3209 31.2263 24.0876 30.9224C23.8544 30.6185 23.6833 30.2717 23.5842 29.9016L18.9583 12.6335V29.1666C18.9583 29.9402 18.651 30.682 18.1041 31.229C17.5571 31.776 16.8152 32.0833 16.0417 32.0833H13.125C12.6129 32.084 12.1098 31.9491 11.6667 31.6925C11.2236 31.9491 10.7204 32.084 10.2083 32.0833H7.29167C6.51812 32.0833 5.77625 31.776 5.22927 31.229C4.68229 30.682 4.375 29.9402 4.375 29.1666V5.83329ZM7.29167 5.83329H10.2083V29.1666H7.29167V5.83329ZM16.0417 29.1666H13.125V5.83329H16.0417V29.1666ZM20.3627 6.60767L23.1802 5.85371L29.2206 28.3923L26.4031 29.1462L20.3627 6.60767Z" fill="#02934B"/>
</svg>
