<svg width="76" height="76" viewBox="0 0 76 76" fill="none" xmlns="http://www.w3.org/2000/svg">
<circle cx="38" cy="38" r="38" fill="#F4F5F6"/>
<path d="M45.9934 41.6667C46.1401 40.4567 46.2501 39.2467 46.2501 38C46.2501 36.7533 46.1401 35.5433 45.9934 34.3333H52.1901C52.4834 35.5067 52.6667 36.735 52.6667 38C52.6667 39.265 52.4834 40.4933 52.1901 41.6667M42.7484 51.86C43.8484 49.825 44.6917 47.625 45.2784 45.3333H50.6867C48.9106 48.3918 46.0926 50.7087 42.7484 51.86ZM42.2901 41.6667H33.7101C33.5267 40.4567 33.4167 39.2467 33.4167 38C33.4167 36.7533 33.5267 35.525 33.7101 34.3333H42.2901C42.4551 35.525 42.5834 36.7533 42.5834 38C42.5834 39.2467 42.4551 40.4567 42.2901 41.6667ZM38.0001 52.5933C36.4784 50.3933 35.2501 47.955 34.4984 45.3333H41.5017C40.7501 47.955 39.5217 50.3933 38.0001 52.5933ZM30.6667 30.6667H25.3134C27.0713 27.5999 29.8872 25.2794 33.2334 24.14C32.1334 26.175 31.3084 28.375 30.6667 30.6667ZM25.3134 45.3333H30.6667C31.3084 47.625 32.1334 49.825 33.2334 51.86C29.8942 50.7081 27.0823 48.3908 25.3134 45.3333ZM23.8101 41.6667C23.5167 40.4933 23.3334 39.265 23.3334 38C23.3334 36.735 23.5167 35.5067 23.8101 34.3333H30.0067C29.8601 35.5433 29.7501 36.7533 29.7501 38C29.7501 39.2467 29.8601 40.4567 30.0067 41.6667M38.0001 23.3883C39.5217 25.5883 40.7501 28.045 41.5017 30.6667H34.4984C35.2501 28.045 36.4784 25.5883 38.0001 23.3883ZM50.6867 30.6667H45.2784C44.7046 28.396 43.855 26.2041 42.7484 24.14C46.1217 25.295 48.9267 27.6233 50.6867 30.6667ZM38.0001 19.6667C27.8617 19.6667 19.6667 27.9167 19.6667 38C19.6667 42.8623 21.5983 47.5255 25.0365 50.9636C26.7389 52.666 28.7599 54.0165 30.9842 54.9378C33.2085 55.8591 35.5925 56.3333 38.0001 56.3333C42.8624 56.3333 47.5255 54.4018 50.9637 50.9636C54.4019 47.5255 56.3334 42.8623 56.3334 38C56.3334 35.5924 55.8592 33.2084 54.9379 30.9841C54.0165 28.7598 52.6661 26.7388 50.9637 25.0364C49.2613 23.334 47.2402 21.9835 45.0159 21.0622C42.7916 20.1409 40.4076 19.6667 38.0001 19.6667Z" fill="black"/>
</svg>
