<svg width="18" height="18" viewBox="0 0 18 18" fill="none" xmlns="http://www.w3.org/2000/svg">
<g id="vuesax/bold/edit-2">
<g id="edit-2">
<g id="Vector">
<mask id="path-1-inside-1_1447_4547" fill="white">
<path d="M15.75 16.5H2.25C1.9425 16.5 1.6875 16.245 1.6875 15.9375C1.6875 15.63 1.9425 15.375 2.25 15.375H15.75C16.0575 15.375 16.3125 15.63 16.3125 15.9375C16.3125 16.245 16.0575 16.5 15.75 16.5Z"/>
</mask>
<path d="M15.75 15H2.25V18H15.75V15ZM2.25 15C2.77093 15 3.1875 15.4166 3.1875 15.9375H0.1875C0.1875 17.0734 1.11407 18 2.25 18V15ZM3.1875 15.9375C3.1875 16.4584 2.77093 16.875 2.25 16.875V13.875C1.11407 13.875 0.1875 14.8016 0.1875 15.9375H3.1875ZM2.25 16.875H15.75V13.875H2.25V16.875ZM15.75 16.875C15.2291 16.875 14.8125 16.4584 14.8125 15.9375H17.8125C17.8125 14.8016 16.8859 13.875 15.75 13.875V16.875ZM14.8125 15.9375C14.8125 15.4166 15.2291 15 15.75 15V18C16.8859 18 17.8125 17.0734 17.8125 15.9375H14.8125Z" fill="#31A2FF" mask="url(#path-1-inside-1_1447_4547)"/>
</g>
<path id="Vector_2" d="M14.2649 2.61C12.8099 1.155 11.3849 1.1175 9.89243 2.61L8.98493 3.5175C8.90993 3.5925 8.87993 3.7125 8.90993 3.8175C9.47993 5.805 11.0699 7.395 13.0574 7.965C13.0874 7.9725 13.1174 7.98 13.1474 7.98C13.2299 7.98 13.3049 7.95 13.3649 7.89L14.2649 6.9825C15.0074 6.2475 15.3674 5.535 15.3674 4.815C15.3749 4.0725 15.0149 3.3525 14.2649 2.61Z" fill="#31A2FF"/>
<path id="Vector_3" d="M11.7077 8.6476C11.4902 8.5426 11.2802 8.4376 11.0777 8.3176C10.9127 8.2201 10.7552 8.1151 10.5977 8.0026C10.4702 7.9201 10.3202 7.8001 10.1777 7.6801C10.1627 7.6726 10.1102 7.6276 10.0502 7.5676C9.80274 7.3576 9.52524 7.0876 9.27774 6.7876C9.25524 6.7726 9.21774 6.7201 9.16524 6.6526C9.09024 6.5626 8.96274 6.4126 8.85024 6.2401C8.76024 6.1276 8.65524 5.9626 8.55774 5.7976C8.43774 5.5951 8.33274 5.3926 8.22774 5.1826C8.09007 4.88759 7.70288 4.79996 7.47268 5.03015L3.25524 9.2476C3.15774 9.3451 3.06774 9.5326 3.04524 9.6601L2.64024 12.5326C2.56524 13.0426 2.70774 13.5226 3.02274 13.8451C3.29274 14.1076 3.66774 14.2501 4.07274 14.2501C4.16274 14.2501 4.25274 14.2426 4.34274 14.2276L7.22274 13.8226C7.35774 13.8001 7.54524 13.7101 7.63524 13.6126L11.8596 9.38819C12.0852 9.1626 12.0005 8.77445 11.7077 8.6476Z" fill="#31A2FF"/>
</g>
</g>
</svg>
