<svg width="31" height="30" viewBox="0 0 31 30" fill="none" xmlns="http://www.w3.org/2000/svg">
<path d="M30.1837 26.7109C28.2661 23.4046 25.2892 20.842 21.7344 19.4375C23.4791 18.129 24.7678 16.3048 25.4181 14.2231C26.0683 12.1415 26.0471 9.90809 25.3575 7.8392C24.6678 5.7703 23.3447 3.97083 21.5756 2.69569C19.8064 1.42054 17.6809 0.734375 15.5001 0.734375C13.3193 0.734375 11.1937 1.42054 9.42456 2.69569C7.65539 3.97083 6.33228 5.7703 5.64265 7.8392C4.95302 9.90809 4.93182 12.1415 5.58207 14.2231C6.23232 16.3048 7.52104 18.129 9.26569 19.4375C5.71096 20.842 2.73402 23.4046 0.816467 26.7109C0.598907 27.088 0.540061 27.5361 0.652876 27.9566C0.765691 28.3771 1.04092 28.7356 1.41803 28.9531C1.79513 29.1707 2.24322 29.2295 2.66371 29.1167C3.0842 29.0039 3.44266 28.7287 3.66022 28.3516C4.86022 26.2733 6.58611 24.5476 8.66442 23.3477C10.7427 22.1479 13.1003 21.5162 15.5001 21.5162C17.8999 21.5162 20.2574 22.1479 22.3357 23.3477C24.414 24.5476 26.1399 26.2733 27.3399 28.3516C27.485 28.6002 27.6925 28.8067 27.9419 28.9505C28.1913 29.0944 28.4739 29.1707 28.7618 29.1719C29.0499 29.1742 29.3333 29.0986 29.5821 28.9531C29.7689 28.8455 29.9327 28.7021 30.064 28.5311C30.1954 28.3601 30.2917 28.165 30.3476 27.9567C30.4035 27.7485 30.4178 27.5313 30.3896 27.3175C30.3615 27.1037 30.2915 26.8976 30.1837 26.7109ZM8.39069 11.125C8.39069 9.7189 8.80764 8.34437 9.58883 7.17524C10.37 6.00611 11.4804 5.09489 12.7794 4.55679C14.0785 4.0187 15.5079 3.87791 16.887 4.15223C18.2661 4.42655 19.5329 5.10365 20.5271 6.09791C21.5214 7.09218 22.1985 8.35895 22.4728 9.73803C22.7471 11.1171 22.6064 12.5466 22.0683 13.8456C21.5302 15.1447 20.6189 16.255 19.4498 17.0362C18.2807 17.8174 16.9062 18.2344 15.5001 18.2344C13.6145 18.2344 11.8062 17.4854 10.473 16.1521C9.13971 14.8188 8.39069 13.0105 8.39069 11.125Z" fill="#454B54"/>
</svg>
