<svg width="54" height="54" viewBox="0 0 54 54" fill="none" xmlns="http://www.w3.org/2000/svg">
<path d="M54 26.9998C54 41.9113 41.9117 54 26.9998 54C12.0883 54 0 41.9113 0 26.9998C0 12.0883 12.0883 0 26.9998 0C41.9117 0 54 12.0883 54 26.9998Z" fill="#00E272"/>
<path d="M43.951 43.6853C43.0097 40.3381 40.4001 37.7185 37.0566 36.7646L30.8888 35.0046H27.0005H23.1121L16.9444 36.7646C13.6008 37.7185 10.9912 40.3381 10.05 43.6853L8.35303 46.5154C13.2003 51.1485 19.7654 53.9999 27.0005 53.9999C34.2356 53.9999 40.8007 51.1485 45.6484 46.5154L43.951 43.6853Z" fill="#383838"/>
<path d="M30.6343 30.0418H27.0005H23.3666L22.2217 36.0372C22.2217 36.0372 24.272 38.1864 27.0005 38.2993C29.7294 38.1864 31.7797 36.0372 31.7797 36.0372L30.6343 30.0418Z" fill="#F0F2F2"/>
<path d="M35.1282 21.6293C35.1282 26.5433 31.4889 33.1242 26.9991 33.1242C22.5097 33.1242 18.8704 26.5433 18.8704 21.6293C18.8704 16.7154 22.5097 12.7318 26.9991 12.7318C31.4889 12.7318 35.1282 16.7154 35.1282 21.6293Z" fill="white"/>
<path d="M19.9 22.3155C19.8614 23.2758 19.2899 24.5409 18.6489 24.5151C18.008 24.4892 17.5403 23.1824 17.5789 22.2221C17.6174 21.2618 18.1686 20.5043 18.8095 20.5301C19.4505 20.556 19.9386 21.3552 19.9 22.3155Z" fill="white"/>
<path d="M36.2709 22.2299C36.3035 23.1906 35.8272 24.4943 35.1863 24.5161C34.5449 24.5379 33.9819 23.2691 33.9493 22.3084C33.9166 21.3481 34.4102 20.5515 35.0511 20.5302C35.6921 20.5084 36.2382 21.2691 36.2709 22.2299Z" fill="white"/>
<path d="M20.7234 13.0736C19.3331 16.2466 25.0009 16.0783 26.5949 15.8892C26.9923 15.842 27.4304 15.71 27.8233 15.7785C28.2601 15.8547 28.6883 16.0829 29.1437 16.1532C30.1353 16.3061 31.1627 16.2298 32.1176 15.9218C32.3362 15.8515 32.5803 15.7703 32.7862 15.871C32.911 15.9323 32.9967 16.0498 33.0761 16.1641C33.4508 16.7034 33.7982 17.2754 33.9697 17.9096C34.2128 18.8073 34.0872 19.7562 34.0386 20.6848C34.0092 21.2604 33.9674 23.3007 34.7132 23.4373C34.8266 22.4711 34.9381 21.4985 35.0506 20.5301C35.0506 20.5301 35.8576 17.6102 35.5732 16.082C35.1282 13.6942 33.399 10.7357 26.4965 10.8092C21.6977 10.86 20.727 13.065 20.7234 13.0736Z" fill="#AEAEAE"/>
<path d="M22.7059 14.7549C22.6923 14.8306 22.6551 14.9032 22.5889 14.9699C22.4228 15.1368 22.1747 15.1812 21.9552 15.2656C21.2571 15.5342 20.8275 16.2227 20.4483 16.8673C20.2047 17.2815 19.9543 17.716 19.9239 18.1955C19.8822 18.8523 20.2478 19.4266 20.3362 20.0607C20.4056 20.5606 20.2863 21.0183 20.1489 21.495C20.0849 21.7173 19.6 23.6315 19.2054 23.4351L18.8683 20.5298C18.8683 20.5298 18.0609 17.6099 18.3458 16.0817C18.6211 14.6047 19.3514 12.8071 21.189 13.3087C21.5646 13.4113 22.8079 14.1838 22.7059 14.7549Z" fill="#AEAEAE"/>
</svg>
