<svg width="196" height="233" viewBox="0 0 196 233" fill="none" xmlns="http://www.w3.org/2000/svg">
<path d="M136.229 187.572C157.033 178.79 174.153 163.114 184.69 143.197C195.227 123.281 198.535 100.349 194.052 78.2817C189.57 56.2147 177.573 36.3688 160.093 22.1035C142.613 7.83814 120.723 0.0297575 98.1292 8.48104e-05C75.535 -0.0295878 53.6245 7.72127 36.1067 21.9406C18.5889 36.16 6.5399 55.9743 1.99931 78.0295C-2.54128 100.085 0.705482 123.026 11.19 142.97C21.6745 162.913 38.7527 178.634 59.5336 187.472L64.1296 176.74C45.8316 168.959 30.7939 155.116 21.5621 137.555C12.3303 119.994 9.47141 99.7943 13.4695 80.3743C17.4676 60.9543 28.077 43.5074 43.5017 30.9869C58.9265 18.4665 78.2191 11.6417 98.1137 11.6678C118.008 11.694 137.283 18.5694 152.674 31.1303C168.066 43.6912 178.629 61.1659 182.576 80.5964C186.523 100.027 183.61 120.219 174.332 137.756C165.054 155.292 149.98 169.096 131.661 176.829L136.229 187.572Z" fill="#ABB1BA"/>
<path d="M125.835 187.028H119.153V184.839C119.153 183.678 118.684 182.564 117.849 181.743C117.013 180.922 115.88 180.461 114.699 180.461H79.0636C77.8822 180.461 76.7492 180.922 75.9138 181.743C75.0785 182.564 74.6092 183.678 74.6092 184.839V187.028H67.8997C66.7183 187.028 65.5853 187.489 64.75 188.311C63.9146 189.132 63.4453 190.245 63.4453 191.406V195.785C63.4453 198.688 64.6186 201.472 66.707 203.525C68.7954 205.577 71.6279 206.73 74.5813 206.73H75.6949C78.3954 214.912 85.773 221.042 94.654 221.945V228.622H87.9724C87.3817 228.622 86.8152 228.852 86.3975 229.263C85.9798 229.673 85.7452 230.23 85.7452 230.811C85.7452 231.391 85.9798 231.948 86.3975 232.359C86.8152 232.769 87.3817 233 87.9724 233H105.79C106.381 233 106.947 232.769 107.365 232.359C107.783 231.948 108.017 231.391 108.017 230.811C108.017 230.23 107.783 229.673 107.365 229.263C106.947 228.852 106.381 228.622 105.79 228.622H99.1084V221.945C103.448 221.526 107.566 219.86 110.948 217.154C114.33 214.448 116.825 210.822 118.123 206.73H119.153C122.107 206.73 124.939 205.577 127.028 203.525C129.116 201.472 130.289 198.688 130.289 195.785V191.406C130.289 190.245 129.82 189.132 128.985 188.311C128.149 187.489 127.016 187.028 125.835 187.028ZM74.5813 202.352C72.8093 202.352 71.1098 201.66 69.8567 200.429C68.6037 199.197 67.8997 197.527 67.8997 195.785V191.406H74.6092V199.917C74.6131 200.73 74.6596 201.543 74.7484 202.352H74.5813ZM125.835 195.785C125.828 197.524 125.121 199.191 123.87 200.421C122.618 201.651 120.923 202.345 119.153 202.352H119.042C119.121 201.625 119.158 200.894 119.153 200.163V191.406H125.835V195.785Z" fill="#ABB1BA"/>
<path d="M171.775 98.0638C171.775 138.844 138.815 171.905 98.1559 171.905C57.498 171.905 24.5381 138.844 24.5381 98.0638C24.5381 57.2835 57.498 24.2243 98.1559 24.2243C138.815 24.2243 171.775 57.2835 171.775 98.0638Z" fill="#00E272"/>
<path d="M144.383 143.696C141.817 134.542 134.701 127.378 125.585 124.769L108.768 119.956H98.1656H87.5636L70.7466 124.769C61.63 127.378 54.5146 134.542 51.9482 143.696L47.3213 151.436C60.5379 164.106 78.4384 171.904 98.1656 171.904C117.893 171.904 135.793 164.106 149.011 151.436L144.383 143.696Z" fill="#383838"/>
<path d="M108.077 106.383H98.1685H88.2604L85.1387 122.779C85.1387 122.779 90.7291 128.657 98.1685 128.966C105.609 128.657 111.2 122.779 111.2 122.779L108.077 106.383Z" fill="#F0F2F2"/>
<path d="M120.314 83.377C120.314 96.8158 110.391 114.814 98.1491 114.814C85.9083 114.814 75.9854 96.8158 75.9854 83.377C75.9854 69.9383 85.9083 59.0438 98.1491 59.0438C110.391 59.0438 120.314 69.9383 120.314 83.377Z" fill="white"/>
<path d="M78.7948 85.2536C78.6897 87.8798 77.1313 91.3397 75.3837 91.269C73.636 91.1982 72.3609 87.6242 72.466 84.998C72.5711 82.3718 74.0739 80.3001 75.8215 80.3708C77.5691 80.4415 78.8999 82.6273 78.7948 85.2536Z" fill="white"/>
<path d="M123.434 85.0192C123.523 87.6467 122.224 91.212 120.477 91.2716C118.728 91.3311 117.193 87.8613 117.104 85.2339C117.015 82.6076 118.36 80.4292 120.108 80.3709C121.856 80.3114 123.345 82.3918 123.434 85.0192Z" fill="white"/>
<path d="M81.0364 59.9782C77.2456 68.6557 92.6996 68.1955 97.0458 67.6782C98.1292 67.5492 99.324 67.1882 100.395 67.3755C101.586 67.5839 102.754 68.2079 103.995 68.4002C106.699 68.8183 109.501 68.6098 112.104 67.7675C112.7 67.5752 113.366 67.3532 113.927 67.6286C114.267 67.796 114.501 68.1173 114.717 68.43C115.739 69.905 116.686 71.4693 117.154 73.2036C117.817 75.6586 117.474 78.2538 117.342 80.7932C117.262 82.3674 117.148 87.9474 119.181 88.3208C119.49 85.6784 119.795 83.0187 120.101 80.3702C120.101 80.3702 122.302 72.3848 121.526 68.2054C120.313 61.6752 115.598 53.5844 96.7774 53.7854C83.6931 53.9243 81.0463 59.9546 81.0364 59.9782Z" fill="#AEAEAE"/>
<path d="M86.4478 64.5765C86.4107 64.7837 86.3093 64.9822 86.1287 65.1645C85.676 65.621 84.9995 65.7426 84.4009 65.9734C82.4974 66.7078 81.3262 68.5909 80.2922 70.3537C79.628 71.4863 78.9453 72.6748 78.8624 73.986C78.7486 75.7823 79.7455 77.3528 79.9867 79.0871C80.1759 80.4542 79.8506 81.7059 79.4759 83.0097C79.3015 83.6176 77.9793 88.8527 76.9033 88.3155L75.9843 80.3698C75.9843 80.3698 73.7828 72.3845 74.5595 68.2051C75.3103 64.1659 77.3016 59.2496 82.3119 60.6217C83.336 60.902 86.7261 63.0147 86.4478 64.5765Z" fill="#AEAEAE"/>
<path d="M92.6978 205.84C93.9778 204.773 94.9978 203.887 95.7578 203.18C96.5178 202.46 97.1511 201.713 97.6578 200.94C98.1645 200.167 98.4178 199.407 98.4178 198.66C98.4178 197.98 98.2578 197.447 97.9378 197.06C97.6178 196.673 97.1245 196.48 96.4578 196.48C95.7911 196.48 95.2778 196.707 94.9178 197.16C94.5578 197.6 94.3711 198.207 94.3578 198.98H91.6378C91.6911 197.38 92.1645 196.167 93.0578 195.34C93.9645 194.513 95.1111 194.1 96.4978 194.1C98.0178 194.1 99.1845 194.507 99.9978 195.32C100.811 196.12 101.218 197.18 101.218 198.5C101.218 199.54 100.938 200.533 100.378 201.48C99.8178 202.427 99.1778 203.253 98.4578 203.96C97.7378 204.653 96.7978 205.493 95.6378 206.48H101.538V208.8H91.6578V206.72L92.6978 205.84Z" fill="white"/>
</svg>
