<svg width="35" height="35" viewBox="0 0 35 35" fill="none" xmlns="http://www.w3.org/2000/svg">
<g clip-path="url(#clip0_83_206)">
<path d="M19.3484 3.69847L18.0578 0.430896C17.8445 -0.136486 17.1773 -0.156994 16.9422 0.430896L15.6516 3.69847L12.7914 4.21117C12.2828 4.30687 12.0641 5.09301 12.4414 5.56468L14.5195 8.09398L14.0273 11.6555C13.9508 12.2912 14.4758 12.7834 14.9461 12.4895L17.5109 10.7942L20.0594 12.4621C20.5297 12.7561 21.0602 12.2639 20.9781 11.6282L20.4859 8.06664L22.5641 5.56468C22.9359 5.09984 22.7227 4.31371 22.2141 4.21117L19.3539 3.69847H19.3484ZM14 17.5002C13.032 17.5002 12.25 18.4778 12.25 19.6877V32.8127C12.25 34.0227 13.032 35.0002 14 35.0002H21C21.968 35.0002 22.75 34.0227 22.75 32.8127V19.6877C22.75 18.4778 21.968 17.5002 21 17.5002H14ZM1.75 21.8752C0.782031 21.8752 0 22.8528 0 24.0627V32.8127C0 34.0227 0.782031 35.0002 1.75 35.0002H8.75C9.71797 35.0002 10.5 34.0227 10.5 32.8127V24.0627C10.5 22.8528 9.71797 21.8752 8.75 21.8752H1.75ZM24.5 28.4377V32.8127C24.5 34.0227 25.282 35.0002 26.25 35.0002H33.25C34.218 35.0002 35 34.0227 35 32.8127V28.4377C35 27.2278 34.218 26.2502 33.25 26.2502H26.25C25.282 26.2502 24.5 27.2278 24.5 28.4377Z" fill="#454B54"/>
</g>
<defs>
<clipPath id="clip0_83_206">
<rect width="35" height="35" fill="white"/>
</clipPath>
</defs>
</svg>
