<svg width="76" height="76" viewBox="0 0 76 76" fill="none" xmlns="http://www.w3.org/2000/svg">
<circle cx="38" cy="38" r="38" fill="#F4F5F6"/>
<path d="M38 56.3333C33.7528 55.2639 30.2469 52.8268 27.4822 49.022C24.7163 45.2184 23.3334 40.9944 23.3334 36.35V25.1667L38 19.6667L52.6667 25.1667V36.35C52.6667 40.9944 51.2844 45.2184 48.5197 49.022C45.7538 52.8268 42.2473 55.2639 38 56.3333ZM38 52.4833C40.9639 51.5667 43.4389 49.7566 45.425 47.053C47.4112 44.3482 48.5723 41.3306 48.9084 38H38V23.5625L27 27.6875V37.175C27 37.3889 27.0306 37.6639 27.0917 38H38V52.4833Z" fill="black"/>
</svg>
