<svg width="32" height="32" viewBox="0 0 32 32" fill="none" xmlns="http://www.w3.org/2000/svg">
<path d="M31.0781 17.3281L24.5156 23.8906C24.3411 24.0646 24.1339 24.2024 23.906 24.2963C23.6781 24.3901 23.434 24.4381 23.1875 24.4375C22.6904 24.4353 22.2139 24.2391 21.8594 23.8906C21.6846 23.7164 21.5459 23.5094 21.4512 23.2815C21.3566 23.0536 21.3079 22.8093 21.3079 22.5625C21.3079 22.3157 21.3566 22.0714 21.4512 21.8435C21.5459 21.6156 21.6846 21.4086 21.8594 21.2344L25.2188 17.875H12.25C11.7527 17.875 11.2758 17.6775 10.9242 17.3258C10.5725 16.9742 10.375 16.4973 10.375 16C10.375 15.5027 10.5725 15.0258 10.9242 14.6742C11.2758 14.3225 11.7527 14.125 12.25 14.125H25.2188L21.8594 10.7656C21.5071 10.4134 21.3092 9.93564 21.3092 9.4375C21.3092 8.93936 21.5071 8.46162 21.8594 8.10938C22.2116 7.75713 22.6894 7.55925 23.1875 7.55925C23.6856 7.55925 24.1634 7.75713 24.5156 8.10938L31.0781 14.6719C31.2529 14.8461 31.3916 15.0531 31.4863 15.281C31.5809 15.5089 31.6296 15.7532 31.6296 16C31.6296 16.2468 31.5809 16.4911 31.4863 16.719C31.3916 16.9469 31.2529 17.1539 31.0781 17.3281ZM12.25 27.875H4.125V4.125H12.25C12.7473 4.125 13.2242 3.92746 13.5758 3.57583C13.9275 3.22419 14.125 2.74728 14.125 2.25C14.125 1.75272 13.9275 1.27581 13.5758 0.924175C13.2242 0.572544 12.7473 0.375 12.25 0.375H3.5C2.67246 0.379107 1.87999 0.709666 1.29483 1.29483C0.709666 1.87999 0.379107 2.67246 0.375 3.5V28.5C0.379107 29.3275 0.709666 30.12 1.29483 30.7052C1.87999 31.2903 2.67246 31.6209 3.5 31.625H12.25C12.7473 31.625 13.2242 31.4275 13.5758 31.0758C13.9275 30.7242 14.125 30.2473 14.125 29.75C14.125 29.2527 13.9275 28.7758 13.5758 28.4242C13.2242 28.0725 12.7473 27.875 12.25 27.875Z" fill="#17191C"/>
</svg>
